# xmcd
#
# Track frame offsets:
#	150
#	18682
#	36507
#	54932
#
# Disc length: 978 seconds
#
# Revision: 1
# Processed by: cddbd v1.5.1PL0 Copyright (c) Steve Scherf et al.
# Submitted via: EasyCDDAExtractor 8.0.2.1
#
DISCID=2f03d004
DTITLE=Miss Jones - 2 Way Street [CD Single)
DYEAR=1998
DGENRE=R&B
TTITLE0=2 Way Street (feat Big Punisher) (#1 Lady Clean Radio Edit)
TTITLE1=2 Way Street (LP Version)
TTITLE2=2 Way Street (Mid-Day Clean Radio Edit)
TTITLE3=I'm Oustanding (Funk Lord Remix)
EXTD=Does not exist in DB. UK-Specific excellent mixes, even funkier!
EXTT0=
EXTT1=
EXTT2=
EXTT3=
PLAYORDER=
